<?xml version="1.0" encoding="UTF-8"?>
<!DOCTYPE svg PUBLIC "-//W3C//DTD SVG 1.1//EN" "http://www.w3.org/Graphics/SVG/1.1/DTD/svg11.dtd">
<svg xmlns="http://www.w3.org/2000/svg" version="1.1" width="137px" height="50px" style="shape-rendering:geometricPrecision; text-rendering:geometricPrecision; image-rendering:optimizeQuality; fill-rule:evenodd; clip-rule:evenodd" xmlns:xlink="http://www.w3.org/1999/xlink">
<g><path style="opacity:1" fill="#1a1c1e" d="M -0.5,0.5 C -0.5,0.166667 -0.5,-0.166667 -0.5,-0.5C 45.1667,-0.5 90.8333,-0.5 136.5,-0.5C 136.5,16.1667 136.5,32.8333 136.5,49.5C 135.833,49.5 135.167,49.5 134.5,49.5C 134.5,33.1667 134.5,16.8333 134.5,0.5C 89.5,0.5 44.5,0.5 -0.5,0.5 Z"/></g>
<g><path style="opacity:1" fill="#00040a" d="M -0.5,0.5 C 44.5,0.5 89.5,0.5 134.5,0.5C 134.5,16.8333 134.5,33.1667 134.5,49.5C 89.5,49.5 44.5,49.5 -0.5,49.5C -0.5,33.1667 -0.5,16.8333 -0.5,0.5 Z"/></g>
<g><path style="opacity:1" fill="#023985" d="M 46.5,15.5 C 55.8685,15.0057 58.5352,18.839 54.5,27C 51.9865,28.2525 49.3198,28.7525 46.5,28.5C 46.5,24.1667 46.5,19.8333 46.5,15.5 Z"/></g>
<g><path style="opacity:1" fill="#000610" d="M 48.5,18.5 C 53.5197,17.905 55.1864,19.905 53.5,24.5C 51.9547,25.4519 50.288,25.7852 48.5,25.5C 48.5,23.1667 48.5,20.8333 48.5,18.5 Z"/></g>
<g><path style="opacity:1" fill="#023273" d="M 58.5,18.5 C 60.5,18.5 62.5,18.5 64.5,18.5C 64.5,19.5 64.5,20.5 64.5,21.5C 63.5,21.5 62.5,21.5 61.5,21.5C 61.5,23.8333 61.5,26.1667 61.5,28.5C 60.5,28.5 59.5,28.5 58.5,28.5C 58.5,25.1667 58.5,21.8333 58.5,18.5 Z"/></g>
<g><path style="opacity:1" fill="#023780" d="M 18.5,4.5 C 20.6648,4.11589 22.3315,4.78256 23.5,6.5C 23.2907,7.08605 22.9574,7.58605 22.5,8C 19.905,8.22565 17.405,8.72565 15,9.5C 13.8384,15.5566 14.8384,21.2233 18,26.5C 27.2285,32.5323 33.5618,30.199 37,19.5C 39.8415,11.1902 37.0082,7.52349 28.5,8.5C 28.5,7.16667 28.5,5.83333 28.5,4.5C 38.0788,4.571 41.9121,9.23767 40,18.5C 39.0352,25.7888 35.2019,30.7888 28.5,33.5C 27.7475,37.1915 26.9142,40.8582 26,44.5C 25.1667,46 24,47.1667 22.5,48C 18.9555,48.5709 15.6221,47.9042 12.5,46C 8.96511,43.1616 8.63177,39.9949 11.5,36.5C 16.0705,34.4081 19.0705,35.7414 20.5,40.5C 20.2395,42.1871 19.5728,43.6871 18.5,45C 21.2175,46.033 23.0508,45.1997 24,42.5C 24.498,39.5184 24.6646,36.5184 24.5,33.5C 17.4149,31.575 13.2482,26.9084 12,19.5C 9.66746,12.2799 11.8341,7.27992 18.5,4.5 Z"/></g>
<g><path style="opacity:1" fill="#023a87" d="M 23.5,11.5 C 25.1667,11.5 26.8333,11.5 28.5,11.5C 28.5,13.1667 28.5,14.8333 28.5,16.5C 30.1667,16.5 31.8333,16.5 33.5,16.5C 34.1667,20.5 32.5,22.1667 28.5,21.5C 28.5,22.8333 28.5,24.1667 28.5,25.5C 26.8333,25.5 25.1667,25.5 23.5,25.5C 23.5,24.1667 23.5,22.8333 23.5,21.5C 19.5,22.1667 17.8333,20.5 18.5,16.5C 20.1667,16.5 21.8333,16.5 23.5,16.5C 23.5,14.8333 23.5,13.1667 23.5,11.5 Z"/></g>
<g><path style="opacity:1" fill="#012454" d="M 83.5,33.5 C 83.4226,34.7498 82.756,35.5831 81.5,36C 82.056,36.3826 82.3893,36.8826 82.5,37.5C 81.5386,39.2646 81.2053,41.2646 81.5,43.5C 80.5,43.5 79.5,43.5 78.5,43.5C 78.5,39.5 78.5,35.5 78.5,31.5C 79.5,31.5 80.5,31.5 81.5,31.5C 81.1307,33.9935 81.7973,34.6602 83.5,33.5 Z"/></g>
<g><path style="opacity:1" fill="#01142e" d="M 99.5,32.5 C 100.167,34.8333 100.833,37.1667 101.5,39.5C 101.5,40.5 101.5,41.5 101.5,42.5C 100.833,42.8333 100.167,43.1667 99.5,43.5C 99.5,39.8333 99.5,36.1667 99.5,32.5 Z"/></g>
<g><path style="opacity:1" fill="#02377f" d="M 68.5,36.5 C 67.8106,37.7736 66.9772,37.7736 66,36.5C 65.3828,37.4491 65.5494,38.2825 66.5,39C 65.9056,39.4643 65.2389,39.631 64.5,39.5C 62.5337,38.7455 62.2004,37.5788 63.5,36C 65.3869,35.2204 67.0536,35.3871 68.5,36.5 Z"/></g>
<g><path style="opacity:1" fill="#02357a" d="M 37.5,31.5 C 40.7916,31.1196 43.1249,32.4529 44.5,35.5C 42.0834,35.0827 39.5834,35.0827 37,35.5C 36.1518,40.9796 37.9852,42.3129 42.5,39.5C 43.7388,41.0072 43.4054,42.1739 41.5,43C 34.9473,43.7631 32.7806,40.9298 35,34.5C 36.045,33.6266 36.8783,32.6266 37.5,31.5 Z"/></g>
<g><path style="opacity:1" fill="#023883" d="M 54.5,35.5 C 61.232,34.4816 63.232,37.1483 60.5,43.5C 59.5344,41.604 59.2011,39.604 59.5,37.5C 58.5,37.5 57.5,37.5 56.5,37.5C 56.7989,39.604 56.4656,41.604 55.5,43.5C 54.52,40.9135 54.1866,38.2469 54.5,35.5 Z"/></g>
<g><path style="opacity:1" fill="#023479" d="M 101.5,42.5 C 101.5,41.5 101.5,40.5 101.5,39.5C 102.718,38.8386 104.051,38.1719 105.5,37.5C 104.609,36.4104 103.609,36.4104 102.5,37.5C 101.289,36.7261 101.289,35.8928 102.5,35C 104.701,34.1751 106.534,34.6751 108,36.5C 108.833,35.5 109.667,34.5 110.5,33.5C 111.354,34.5217 112.354,35.3551 113.5,36C 110.906,38.0719 110.906,40.2385 113.5,42.5C 112.349,43.731 111.183,43.731 110,42.5C 109.019,36.136 108.519,36.4694 108.5,43.5C 106.05,43.702 103.717,43.3686 101.5,42.5 Z"/></g>
<g><path style="opacity:1" fill="#000610" d="M 12.5,38.5 C 16.6759,37.8307 18.0093,39.3307 16.5,43C 15.2068,43.49 13.8734,43.6567 12.5,43.5C 12.5,41.8333 12.5,40.1667 12.5,38.5 Z"/></g>
<g><path style="opacity:1" fill="#02357c" d="M 99.5,32.5 C 99.5,36.1667 99.5,39.8333 99.5,43.5C 97.8356,42.0512 97.0023,40.0512 97,37.5C 94.4805,42.7186 92.4805,42.3853 91,36.5C 90.8142,38.9005 90.3142,41.2338 89.5,43.5C 88.5108,39.8927 88.1774,36.226 88.5,32.5C 91.595,32.6263 93.4283,34.293 94,37.5C 95.0836,36.3349 95.9169,35.0016 96.5,33.5C 97.325,32.6143 98.325,32.281 99.5,32.5 Z"/></g>
<g><path style="opacity:1" fill="#02367d" d="M 116.5,34.5 C 119.833,34.5 121.5,36.1667 121.5,39.5C 119.712,39.2148 118.045,39.5481 116.5,40.5C 117.776,41.6446 119.109,41.6446 120.5,40.5C 121.711,41.2739 121.711,42.1072 120.5,43C 116.905,44.0727 114.905,42.7394 114.5,39C 114.519,37.167 115.185,35.667 116.5,34.5 Z"/></g>
<g><path style="opacity:1" fill="#03132a" d="M 117.5,36.5 C 118.376,36.3691 119.043,36.7025 119.5,37.5C 117.192,38.8734 116.525,38.5401 117.5,36.5 Z"/></g>
<g><path style="opacity:1" fill="#023377" d="M 46.5,35.5 C 52.9511,35.0924 54.6178,37.5924 51.5,43C 45.5933,43.7465 43.9267,41.2465 46.5,35.5 Z"/></g>
<g><path style="opacity:1" fill="#000610" d="M 47.5,37.5 C 48.5,37.5 49.5,37.5 50.5,37.5C 50.5,38.8333 50.5,40.1667 50.5,41.5C 49.5,41.5 48.5,41.5 47.5,41.5C 47.5,40.1667 47.5,38.8333 47.5,37.5 Z"/></g>
<g><path style="opacity:1" fill="#031c40" d="M 70.5,35.5 C 70.5,37.5 70.5,39.5 70.5,41.5C 69.8333,41.8333 69.1667,42.1667 68.5,42.5C 68.7251,38.9438 67.8918,38.6105 66,41.5C 65.2352,41.4301 64.7352,41.0967 64.5,40.5C 64.5,40.1667 64.5,39.8333 64.5,39.5C 65.2389,39.631 65.9056,39.4643 66.5,39C 65.5494,38.2825 65.3828,37.4491 66,36.5C 66.9772,37.7736 67.8106,37.7736 68.5,36.5C 69.1667,36.1667 69.8333,35.8333 70.5,35.5 Z"/></g>
<g><path style="opacity:1" fill="#010b19" d="M 103.5,39.5 C 105.337,39.6395 105.67,40.3061 104.5,41.5C 103.702,41.0431 103.369,40.3764 103.5,39.5 Z"/></g>
<g><path style="opacity:1" fill="#02347a" d="M 68.5,42.5 C 66.1331,44.0723 64.1331,43.739 62.5,41.5C 62.9569,40.7025 63.6236,40.3691 64.5,40.5C 64.7352,41.0967 65.2352,41.4301 66,41.5C 67.8918,38.6105 68.7251,38.9438 68.5,42.5 Z"/></g>
<g><path style="opacity:1" fill="#02367e" d="M 70.5,35.5 C 72.0358,37.0251 73.0358,39.0251 73.5,41.5C 74.9882,39.8507 75.9882,37.8507 76.5,35.5C 77.48,38.0865 77.8134,40.7531 77.5,43.5C 75.4727,43.6621 73.4727,43.4955 71.5,43C 70.944,42.6174 70.6107,42.1174 70.5,41.5C 70.5,39.5 70.5,37.5 70.5,35.5 Z"/></g>
<g><path style="opacity:1" fill="#023376" d="M 83.5,33.5 C 86.3695,34.5352 87.0362,36.3686 85.5,39C 85.8443,40.3651 86.5109,41.5318 87.5,42.5C 83.5099,43.6379 81.8433,41.9712 82.5,37.5C 82.3893,36.8826 82.056,36.3826 81.5,36C 82.756,35.5831 83.4226,34.7498 83.5,33.5 Z"/></g>
</svg>
