
<svg width="217" height="46" viewBox="0 0 217 46" fill="none" xmlns="http://www.w3.org/2000/svg">
  <rect width="217" height="46" fill="transparent"/>
  <g transform="translate(0, 0) scale(0.35)">
    <path d="M40 40C40 17.9 57.9 0 80 0C102.1 0 120 17.9 120 40V120C120 142.1 102.1 160 80 160C57.9 160 40 142.1 40 120V40Z" fill="url(#grad1)"/>
    <circle cx="130" cy="30" r="7" fill="#3182CE"/>
    <path d="M85 40C85 62 110 68 110 90C110 112 95 120 80 120C65 120 50 112 50 90C50 68 75 62 75 40H85Z" fill="white"/>
    <text x="150" y="105" font-family="Segoe UI, sans-serif" font-size="80" font-weight="bold" fill="#1E3A8A">DrConsultMate</text>
  </g>
  <defs>
    <linearGradient id="grad1" x1="40" y1="0" x2="120" y2="160" gradientUnits="userSpaceOnUse">
      <stop stop-color="#90CDF4"/>
      <stop offset="1" stop-color="#3182CE"/>
    </linearGradient>
  </defs>
</svg>
